<svg width="24" height="24" viewBox="0 0 24 24" fill="none" xmlns="http://www.w3.org/2000/svg">
<path d="M8.58571 6.75H4.7C4.58954 6.75 4.5 6.83954 4.5 6.95V17.3212C4.5 17.3947 4.54037 17.4624 4.60513 17.4972L8.49084 19.5911C8.62409 19.6629 8.78571 19.5664 8.78571 19.415V6.95C8.78571 6.83954 8.69617 6.75 8.58571 6.75Z" fill="white"/>
<path d="M15.4143 6.75H19.3C19.4105 6.75 19.5 6.83954 19.5 6.95V17.3212C19.5 17.3947 19.4596 17.4624 19.3949 17.4972L15.5092 19.5911C15.3759 19.6629 15.2143 19.5664 15.2143 19.415V6.95C15.2143 6.83954 15.3038 6.75 15.4143 6.75Z" fill="white"/>
<path d="M13.9429 6.75H10.0572C9.94672 6.75 9.85718 6.83954 9.85718 6.95V19.6459C9.85718 19.7111 9.88902 19.7723 9.94249 19.8097L11.8853 21.1697C11.9542 21.2179 12.0459 21.2179 12.1147 21.1697L14.0576 19.8097C14.111 19.7723 14.1429 19.7111 14.1429 19.6459V6.95C14.1429 6.83954 14.0533 6.75 13.9429 6.75Z" fill="white"/>
<rect x="3.5" y="2.75" width="17" height="3" rx="0.5" fill="white"/>
<line x1="20" y1="4.25" x2="21" y2="4.25" stroke="white" stroke-linecap="round"/>
<line x1="3" y1="4.25" x2="4" y2="4.25" stroke="white" stroke-linecap="round"/>
</svg>
