<svg width="24" height="24" viewBox="0 0 24 24" fill="none" xmlns="http://www.w3.org/2000/svg">
<path d="M11.4949 4.57698C11.7739 4.30839 12.2261 4.30839 12.5051 4.57698L20.7806 12.5453C21.0596 12.8139 21.5118 12.8139 21.7908 12.5453C22.0697 12.2767 22.0697 11.8413 21.7908 11.5727L13.5152 3.60433C12.6784 2.79856 11.3216 2.79856 10.4848 3.60433L2.20921 11.5727C1.93026 11.8413 1.93026 12.2767 2.20921 12.5453C2.48816 12.8139 2.94042 12.8139 3.21936 12.5453L11.4949 4.57698Z" fill="white"/>
<path d="M12 6.03596L19.7705 13.518C19.7988 13.5452 19.8277 13.5716 19.8571 13.597V19.2806C19.8571 20.2302 19.0576 21 18.0714 21H14.8571C14.4627 21 14.1429 20.6921 14.1429 20.3122V16.1856C14.1429 15.8058 13.8231 15.4978 13.4286 15.4978H10.5714C10.1769 15.4978 9.85714 15.8058 9.85714 16.1856V20.3122C9.85714 20.6921 9.53735 21 9.14286 21H5.92857C4.94235 21 4.14286 20.2302 4.14286 19.2806V13.597C4.17231 13.5716 4.20121 13.5452 4.22951 13.518L12 6.03596Z" fill="white"/>
</svg>
