<svg width="20" height="20" viewBox="0 0 20 20" fill="none" xmlns="http://www.w3.org/2000/svg">
<path fill-rule="evenodd" clip-rule="evenodd" d="M4.03696 6.51114C3.33891 6.51114 2.82945 7.02933 2.82945 7.60205V16.4679C2.82945 17.0406 3.33891 17.5588 4.03696 17.5588H15.963C16.6611 17.5588 17.1705 17.0406 17.1705 16.4679V7.60205C17.1705 7.02933 16.6611 6.51114 15.963 6.51114H4.03696ZM1.66666 7.60205C1.66666 6.3386 2.75903 5.36829 4.03696 5.36829H15.963C17.2409 5.36829 18.3333 6.3386 18.3333 7.60205V16.4679C18.3333 17.7313 17.2409 18.7016 15.963 18.7016H4.03696C2.75903 18.7016 1.66666 17.7313 1.66666 16.4679V7.60205Z" fill="white"/>
<path d="M7.5 10.2091C7.5 9.83675 7.80184 9.53491 8.17418 9.53491C8.27884 9.53491 8.38208 9.55925 8.47567 9.60608L12.1273 11.4319C12.3558 11.5461 12.5 11.7796 12.5 12.0349C12.5 12.2902 12.3558 12.5237 12.1273 12.6379L8.47567 14.4637C8.38208 14.5106 8.27884 14.5349 8.17418 14.5349C7.80184 14.5349 7.5 14.2331 7.5 13.8607V10.2091Z" fill="white"/>
<path d="M5 1.66663L9.16667 5.83329" stroke="white" stroke-width="1.5" stroke-linecap="round"/>
<path d="M14.6317 1.66663L10.4651 5.83329" stroke="white" stroke-width="1.5" stroke-linecap="round"/>
</svg>
